# xmcd CD database file
#
# Track frame offsets:
#	150
#	18092
#	42827
#	60732
#
# Disc length: 1136 seconds
#
# Revision: 2
# Processed by: cddbd v1.5PL3 Copyright (c) Steve Scherf et al.
# Submitted via: CDex 1.50beta8
#
DISCID=27046e04
DTITLE=石塚早織 - 禁断のパンセ
DYEAR=1998
DGENRE=Anime
TTITLE0=禁断のパンセ
TTITLE1=Silent Tears
TTITLE2=禁断のパンセ(Off Vocal Version)
TTITLE3=Silent Tears(Off Vocal Version)
EXTD=YEAR: 1998
EXTT0=
EXTT1=
EXTT2=
EXTT3=
PLAYORDER=
